<svg width="68" height="61" viewBox="0 0 68 61" fill="none" xmlns="http://www.w3.org/2000/svg">
<path d="M40.1626 15.0069V60.5669H51.7726V15.0069H40.1626Z" fill="#040D14"/>
<path d="M51.1201 60.56C60.3929 60.56 67.9101 50.361 67.9101 37.78C67.9101 25.199 60.3929 15 51.1201 15C41.8472 15 34.3301 25.199 34.3301 37.78C34.3301 50.361 41.8472 60.56 51.1201 60.56Z" fill="#040D14"/>
<path d="M40.1601 60.56C49.433 60.56 56.9501 50.361 56.9501 37.78C56.9501 25.199 49.433 15 40.1601 15C30.8873 15 23.3701 25.199 23.3701 37.78C23.3701 50.361 30.8873 60.56 40.1601 60.56Z" fill="#3CE6AF"/>
<path d="M47.84 38.49L39.78 50.82L31.72 38.49L39.78 26.16L47.84 38.49Z" fill="white"/>
<path d="M16.791 0.0055542L16.791 45.5656H28.401L28.401 0.0055542H16.791Z" fill="#040D14"/>
<path d="M27.75 45.56C37.0228 45.56 44.54 35.361 44.54 22.78C44.54 10.199 37.0228 0 27.75 0C18.4771 0 10.96 10.199 10.96 22.78C10.96 35.361 18.4771 45.56 27.75 45.56Z" fill="#040D14"/>
<path d="M16.79 45.56C26.0629 45.56 33.58 35.361 33.58 22.78C33.58 10.199 26.0629 0 16.79 0C7.51714 0 0 10.199 0 22.78C0 35.361 7.51714 45.56 16.79 45.56Z" fill="#3CE6AF"/>
<path d="M20.1299 20.63H9.41992V11.62H20.1399C22.4799 11.62 24.3799 13.52 24.3799 15.86V16.39C24.3699 18.73 22.4799 20.63 20.1299 20.63Z" fill="white"/>
<path d="M20.1299 33.98H9.41992V24.97H20.1399C22.4799 24.97 24.3799 26.87 24.3799 29.21V29.74C24.3699 32.08 22.4799 33.98 20.1299 33.98Z" fill="white"/>
</svg>
