<svg width="72" height="53" viewBox="0 0 72 53" fill="none" xmlns="http://www.w3.org/2000/svg">
<path d="M0 46.02C11.13 38.74 13.17 25.49 17.83 25.49C21.47 25.49 22.92 32.88 26.36 32.88C30.44 32.88 33.52 15.04 38.56 15.04C42.7 15.04 44.7 23.4 47.94 23.4C52.87 23.4 56.12 0 63.07 0C63.07 12.52 63.07 46.02 63.07 46.02H0Z" fill="#3CE6AF"/>
<path d="M8.37012 52.58C19.5001 48.33 21.5401 40.59 26.2001 40.59C29.8401 40.59 31.2901 44.9 34.7301 44.9C38.8101 44.9 41.8901 34.49 46.9301 34.49C51.0701 34.49 53.0701 39.37 56.3101 39.37C61.2401 39.37 64.4901 25.71 71.4401 25.71C71.4401 33.02 71.4401 52.57 71.4401 52.57H8.37012V52.58Z" fill="black"/>
</svg>
